<svg width="39" height="36" viewBox="0 0 39 36" fill="none" xmlns="http://www.w3.org/2000/svg">
<g id="bx:right-arrow-circle">
<path id="Vector" d="M19.633 2.57275C10.9025 2.5743 3.7997 9.49021 3.7997 17.991C3.7997 26.4917 10.9025 33.4076 19.6346 33.4076C28.3635 33.4076 35.4664 26.4917 35.4679 17.991C35.4679 9.49021 28.3651 2.5743 19.633 2.57275ZM19.6346 30.3243C12.6489 30.3243 6.96636 24.7913 6.96636 17.991C6.96636 11.1907 12.6489 5.65763 19.633 5.65609C26.6187 5.65763 32.3013 11.1907 32.3013 17.991C32.2997 24.7913 26.6171 30.3243 19.6346 30.3243Z" fill="#952323"/>
<path id="Vector_2" d="M19.6346 16.449H13.3013V19.5323H19.6346V24.1665L25.9759 17.9922L19.6346 11.8193V16.449Z" fill="#952323"/>
</g>
</svg>
