<svg width="160" height="201" viewBox="0 0 160 201" fill="none" xmlns="http://www.w3.org/2000/svg">
<path d="M35 200.167C25.1667 200.167 16.8734 196.793 10.12 190.047C3.36668 183.3 -0.00665681 175.007 9.86193e-06 165.167V35.1666C9.86193e-06 25.5 3.37335 17.25 10.12 10.4166C16.8667 3.58329 25.16 0.166626 35 0.166626H160V150.167C155.667 150.167 152.083 151.627 149.25 154.547C146.417 157.467 145 161.007 145 165.167C145 169.5 146.417 173.083 149.25 175.917C152.083 178.75 155.667 180.167 160 180.167V200.167H35ZM47.25 110.167H59.5L65.75 92.4166H94.0001L100.25 110.167H112.5L86.0001 40.1666H73.5L47.25 110.167ZM69.25 82.1666L79.5 53.1666H80.25L90.5001 82.1666H69.25ZM35 180.167H128.25C127.25 177.833 126.46 175.457 125.88 173.037C125.3 170.617 125.007 167.993 125 165.167C125 162.5 125.25 159.917 125.75 157.417C126.25 154.917 127.083 152.5 128.25 150.167H35C30.6667 150.167 27.0834 151.627 24.25 154.547C21.4167 157.467 20 161.007 20 165.167C20 169.5 21.4167 173.083 24.25 175.917C27.0834 178.75 30.6667 180.167 35 180.167Z" fill="#FBF6E8"/>
</svg>
